<svg width="197" height="40" viewBox="0 0 197 40" fill="none" xmlns="http://www.w3.org/2000/svg">
<g clip-path="url(#clip0_49_2003)">
<path d="M45.6133 22.8664H42.2148V9.06171C42.2148 8.10077 42.4023 7.29218 42.7773 6.63593C43.1602 5.97186 43.6953 5.47186 44.3828 5.13593C45.0781 4.79218 45.9023 4.6203 46.8555 4.6203C47.168 4.6203 47.4688 4.64374 47.7578 4.69061C48.0469 4.72968 48.3281 4.78046 48.6016 4.84296L48.5664 7.38593C48.418 7.34686 48.2617 7.31952 48.0977 7.30389C47.9336 7.28827 47.7422 7.28046 47.5234 7.28046C47.1172 7.28046 46.7695 7.35077 46.4805 7.49139C46.1992 7.62421 45.9844 7.82343 45.8359 8.08905C45.6875 8.35468 45.6133 8.67889 45.6133 9.06171V22.8664ZM48.1445 10.1867V12.5773H40.3281V10.1867H48.1445ZM49.375 16.6555V16.4094C49.375 15.4797 49.5078 14.6242 49.7734 13.843C50.0391 13.0539 50.4258 12.3703 50.9336 11.7922C51.4414 11.2141 52.0664 10.7648 52.8086 10.4445C53.5508 10.1164 54.4023 9.95233 55.3633 9.95233C56.3242 9.95233 57.1797 10.1164 57.9297 10.4445C58.6797 10.7648 59.3086 11.2141 59.8164 11.7922C60.332 12.3703 60.7227 13.0539 60.9883 13.843C61.2539 14.6242 61.3867 15.4797 61.3867 16.4094V16.6555C61.3867 17.5773 61.2539 18.4328 60.9883 19.2219C60.7227 20.0031 60.332 20.6867 59.8164 21.2726C59.3086 21.8508 58.6836 22.3 57.9414 22.6203C57.1992 22.9406 56.3477 23.1008 55.3867 23.1008C54.4258 23.1008 53.5703 22.9406 52.8203 22.6203C52.0781 22.3 51.4492 21.8508 50.9336 21.2726C50.4258 20.6867 50.0391 20.0031 49.7734 19.2219C49.5078 18.4328 49.375 17.5773 49.375 16.6555ZM52.75 16.4094V16.6555C52.75 17.1867 52.7969 17.6828 52.8906 18.1437C52.9844 18.6047 53.1328 19.0109 53.3359 19.3625C53.5469 19.7062 53.8203 19.9758 54.1562 20.1711C54.4922 20.3664 54.9023 20.4641 55.3867 20.4641C55.8555 20.4641 56.2578 20.3664 56.5938 20.1711C56.9297 19.9758 57.1992 19.7062 57.4023 19.3625C57.6055 19.0109 57.7539 18.6047 57.8477 18.1437C57.9492 17.6828 58 17.1867 58 16.6555V16.4094C58 15.8937 57.9492 15.4094 57.8477 14.9562C57.7539 14.4953 57.6016 14.0891 57.3906 13.7375C57.1875 13.3781 56.918 13.0969 56.582 12.8937C56.2461 12.6906 55.8398 12.5891 55.3633 12.5891C54.8867 12.5891 54.4805 12.6906 54.1445 12.8937C53.8164 13.0969 53.5469 13.3781 53.3359 13.7375C53.1328 14.0891 52.9844 14.4953 52.8906 14.9562C52.7969 15.4094 52.75 15.8937 52.75 16.4094ZM62.9219 16.6555V16.4094C62.9219 15.4797 63.0547 14.6242 63.3203 13.843C63.5859 13.0539 63.9727 12.3703 64.4805 11.7922C64.9883 11.2141 65.6133 10.7648 66.3555 10.4445C67.0977 10.1164 67.9492 9.95233 68.9102 9.95233C69.8711 9.95233 70.7266 10.1164 71.4766 10.4445C72.2266 10.7648 72.8555 11.2141 73.3633 11.7922C73.8789 12.3703 74.2695 13.0539 74.5352 13.843C74.8008 14.6242 74.9336 15.4797 74.9336 16.4094V16.6555C74.9336 17.5773 74.8008 18.4328 74.5352 19.2219C74.2695 20.0031 73.8789 20.6867 73.3633 21.2726C72.8555 21.8508 72.2305 22.3 71.4883 22.6203C70.7461 22.9406 69.8945 23.1008 68.9336 23.1008C67.9727 23.1008 67.1172 22.9406 66.3672 22.6203C65.625 22.3 64.9961 21.8508 64.4805 21.2726C63.9727 20.6867 63.5859 20.0031 63.3203 19.2219C63.0547 18.4328 62.9219 17.5773 62.9219 16.6555ZM66.2969 16.4094V16.6555C66.2969 17.1867 66.3438 17.6828 66.4375 18.1437C66.5312 18.6047 66.6797 19.0109 66.8828 19.3625C67.0938 19.7062 67.3672 19.9758 67.7031 20.1711C68.0391 20.3664 68.4492 20.4641 68.9336 20.4641C69.4023 20.4641 69.8047 20.3664 70.1406 20.1711C70.4766 19.9758 70.7461 19.7062 70.9492 19.3625C71.1523 19.0109 71.3008 18.6047 71.3945 18.1437C71.4961 17.6828 71.5469 17.1867 71.5469 16.6555V16.4094C71.5469 15.8937 71.4961 15.4094 71.3945 14.9562C71.3008 14.4953 71.1484 14.0891 70.9375 13.7375C70.7344 13.3781 70.4648 13.0969 70.1289 12.8937C69.793 12.6906 69.3867 12.5891 68.9102 12.5891C68.4336 12.5891 68.0273 12.6906 67.6914 12.8937C67.3633 13.0969 67.0938 13.3781 66.8828 13.7375C66.6797 14.0891 66.5312 14.4953 66.4375 14.9562C66.3438 15.4094 66.2969 15.8937 66.2969 16.4094ZM84.4961 20.1008V4.86639H87.8945V22.8664H84.8359L84.4961 20.1008ZM76.4805 16.6789V16.4328C76.4805 15.4641 76.5898 14.5851 76.8086 13.7961C77.0273 12.9992 77.3477 12.3156 77.7695 11.7453C78.1914 11.175 78.7109 10.7336 79.3281 10.4211C79.9453 10.1086 80.6484 9.95233 81.4375 9.95233C82.1797 9.95233 82.8281 10.1086 83.3828 10.4211C83.9453 10.7336 84.4219 11.1789 84.8125 11.757C85.2109 12.3273 85.5312 13.0031 85.7734 13.7844C86.0156 14.5578 86.1914 15.4055 86.3008 16.3273V16.8664C86.1914 17.7492 86.0156 18.5695 85.7734 19.3273C85.5312 20.0851 85.2109 20.7492 84.8125 21.3195C84.4219 21.882 83.9453 22.3195 83.3828 22.632C82.8203 22.9445 82.1641 23.1008 81.4141 23.1008C80.625 23.1008 79.9219 22.9406 79.3047 22.6203C78.6953 22.3 78.1797 21.8508 77.7578 21.2726C77.3438 20.6945 77.0273 20.0148 76.8086 19.2336C76.5898 18.4523 76.4805 17.6008 76.4805 16.6789ZM79.8555 16.4328V16.6789C79.8555 17.2023 79.8945 17.6906 79.9727 18.1437C80.0586 18.5969 80.1953 18.9992 80.3828 19.3508C80.5781 19.6945 80.8281 19.9641 81.1328 20.1594C81.4453 20.3469 81.8242 20.4406 82.2695 20.4406C82.8477 20.4406 83.3242 20.3117 83.6992 20.0539C84.0742 19.7883 84.3594 19.425 84.5547 18.9641C84.7578 18.5031 84.875 17.9719 84.9062 17.3703V15.8351C84.8828 15.343 84.8125 14.9016 84.6953 14.5109C84.5859 14.1125 84.4219 13.7726 84.2031 13.4914C83.9922 13.2101 83.7266 12.9914 83.4062 12.8351C83.0938 12.6789 82.7227 12.6008 82.293 12.6008C81.8555 12.6008 81.4805 12.7023 81.168 12.9055C80.8555 13.1008 80.6016 13.3703 80.4062 13.7141C80.2188 14.0578 80.0781 14.4641 79.9844 14.9328C79.8984 15.3937 79.8555 15.8937 79.8555 16.4328ZM102.344 23.1008C101.359 23.1008 100.477 22.9445 99.6953 22.632C98.9141 22.3117 98.25 21.8703 97.7031 21.3078C97.1641 20.7453 96.75 20.093 96.4609 19.3508C96.1719 18.6008 96.0273 17.8039 96.0273 16.9601V16.4914C96.0273 15.5305 96.1641 14.6516 96.4375 13.8547C96.7109 13.0578 97.1016 12.3664 97.6094 11.7805C98.125 11.1945 98.75 10.7453 99.4844 10.4328C100.219 10.1125 101.047 9.95233 101.969 9.95233C102.867 9.95233 103.664 10.1008 104.359 10.3976C105.055 10.6945 105.637 11.1164 106.105 11.6633C106.582 12.2101 106.941 12.8664 107.184 13.632C107.426 14.3898 107.547 15.2336 107.547 16.1633V17.5695H97.4688V15.3195H104.23V15.0617C104.23 14.593 104.145 14.175 103.973 13.8078C103.809 13.4328 103.559 13.1359 103.223 12.9172C102.887 12.6984 102.457 12.5891 101.934 12.5891C101.488 12.5891 101.105 12.6867 100.785 12.882C100.465 13.0773 100.203 13.3508 100 13.7023C99.8047 14.0539 99.6562 14.468 99.5547 14.9445C99.4609 15.4133 99.4141 15.9289 99.4141 16.4914V16.9601C99.4141 17.468 99.4844 17.9367 99.625 18.3664C99.7734 18.7961 99.9805 19.1672 100.246 19.4797C100.52 19.7922 100.848 20.0344 101.23 20.2062C101.621 20.3781 102.062 20.4641 102.555 20.4641C103.164 20.4641 103.73 20.3469 104.254 20.1125C104.785 19.8703 105.242 19.507 105.625 19.0226L107.266 20.8039C107 21.1867 106.637 21.5539 106.176 21.9055C105.723 22.257 105.176 22.5461 104.535 22.7726C103.895 22.9914 103.164 23.1008 102.344 23.1008ZM112.188 10.1867L114.285 14.0422L116.441 10.1867H120.039L116.453 16.3859L120.203 22.8664H116.594L114.309 18.7883L112.023 22.8664H108.414L112.164 16.3859L108.578 10.1867H112.188ZM125.055 12.6242V27.7414H121.68V10.1867H124.809L125.055 12.6242ZM133.082 16.3859V16.632C133.082 17.5539 132.973 18.4094 132.754 19.1984C132.543 19.9875 132.23 20.675 131.816 21.2609C131.402 21.8391 130.887 22.2922 130.27 22.6203C129.66 22.9406 128.957 23.1008 128.16 23.1008C127.387 23.1008 126.715 22.9445 126.145 22.632C125.574 22.3195 125.094 21.882 124.703 21.3195C124.32 20.7492 124.012 20.0891 123.777 19.3391C123.543 18.5891 123.363 17.7844 123.238 16.925V16.2805C123.363 15.3586 123.543 14.5148 123.777 13.7492C124.012 12.9758 124.32 12.3078 124.703 11.7453C125.094 11.175 125.57 10.7336 126.133 10.4211C126.703 10.1086 127.371 9.95233 128.137 9.95233C128.941 9.95233 129.648 10.1047 130.258 10.4094C130.875 10.7141 131.391 11.1516 131.805 11.7219C132.227 12.2922 132.543 12.9719 132.754 13.7609C132.973 14.55 133.082 15.425 133.082 16.3859ZM129.695 16.632V16.3859C129.695 15.8469 129.648 15.3508 129.555 14.8976C129.469 14.4367 129.328 14.0344 129.133 13.6906C128.945 13.3469 128.695 13.0812 128.383 12.8937C128.078 12.6984 127.707 12.6008 127.27 12.6008C126.809 12.6008 126.414 12.675 126.086 12.8234C125.766 12.9719 125.504 13.1867 125.301 13.468C125.098 13.7492 124.945 14.0851 124.844 14.4758C124.742 14.8664 124.68 15.3078 124.656 15.8V17.4289C124.695 18.007 124.805 18.5266 124.984 18.9875C125.164 19.4406 125.441 19.8 125.816 20.0656C126.191 20.3312 126.684 20.4641 127.293 20.4641C127.738 20.4641 128.113 20.3664 128.418 20.1711C128.723 19.968 128.969 19.6906 129.156 19.3391C129.352 18.9875 129.488 18.5812 129.566 18.1203C129.652 17.6594 129.695 17.1633 129.695 16.632ZM138.742 4.86639V22.8664H135.355V4.86639H138.742ZM140.992 16.6555V16.4094C140.992 15.4797 141.125 14.6242 141.391 13.843C141.656 13.0539 142.043 12.3703 142.551 11.7922C143.059 11.2141 143.684 10.7648 144.426 10.4445C145.168 10.1164 146.02 9.95233 146.98 9.95233C147.941 9.95233 148.797 10.1164 149.547 10.4445C150.297 10.7648 150.926 11.2141 151.434 11.7922C151.949 12.3703 152.34 13.0539 152.605 13.843C152.871 14.6242 153.004 15.4797 153.004 16.4094V16.6555C153.004 17.5773 152.871 18.4328 152.605 19.2219C152.34 20.0031 151.949 20.6867 151.434 21.2726C150.926 21.8508 150.301 22.3 149.559 22.6203C148.816 22.9406 147.965 23.1008 147.004 23.1008C146.043 23.1008 145.188 22.9406 144.438 22.6203C143.695 22.3 143.066 21.8508 142.551 21.2726C142.043 20.6867 141.656 20.0031 141.391 19.2219C141.125 18.4328 140.992 17.5773 140.992 16.6555ZM144.367 16.4094V16.6555C144.367 17.1867 144.414 17.6828 144.508 18.1437C144.602 18.6047 144.75 19.0109 144.953 19.3625C145.164 19.7062 145.438 19.9758 145.773 20.1711C146.109 20.3664 146.52 20.4641 147.004 20.4641C147.473 20.4641 147.875 20.3664 148.211 20.1711C148.547 19.9758 148.816 19.7062 149.02 19.3625C149.223 19.0109 149.371 18.6047 149.465 18.1437C149.566 17.6828 149.617 17.1867 149.617 16.6555V16.4094C149.617 15.8937 149.566 15.4094 149.465 14.9562C149.371 14.4953 149.219 14.0891 149.008 13.7375C148.805 13.3781 148.535 13.0969 148.199 12.8937C147.863 12.6906 147.457 12.5891 146.98 12.5891C146.504 12.5891 146.098 12.6906 145.762 12.8937C145.434 13.0969 145.164 13.3781 144.953 13.7375C144.75 14.0891 144.602 14.4953 144.508 14.9562C144.414 15.4094 144.367 15.8937 144.367 16.4094ZM158.453 12.9523V22.8664H155.078V10.1867H158.254L158.453 12.9523ZM162.273 10.1047L162.215 13.2336C162.051 13.2101 161.852 13.1906 161.617 13.175C161.391 13.1516 161.184 13.1398 160.996 13.1398C160.52 13.1398 160.105 13.2023 159.754 13.3273C159.41 13.4445 159.121 13.6203 158.887 13.8547C158.66 14.0891 158.488 14.3742 158.371 14.7101C158.262 15.0461 158.199 15.4289 158.184 15.8586L157.504 15.6476C157.504 14.8273 157.586 14.0734 157.75 13.3859C157.914 12.6906 158.152 12.0851 158.465 11.5695C158.785 11.0539 159.176 10.6555 159.637 10.3742C160.098 10.093 160.625 9.95233 161.219 9.95233C161.406 9.95233 161.598 9.96796 161.793 9.99921C161.988 10.0226 162.148 10.0578 162.273 10.1047ZM169.469 23.1008C168.484 23.1008 167.602 22.9445 166.82 22.632C166.039 22.3117 165.375 21.8703 164.828 21.3078C164.289 20.7453 163.875 20.093 163.586 19.3508C163.297 18.6008 163.152 17.8039 163.152 16.9601V16.4914C163.152 15.5305 163.289 14.6516 163.562 13.8547C163.836 13.0578 164.227 12.3664 164.734 11.7805C165.25 11.1945 165.875 10.7453 166.609 10.4328C167.344 10.1125 168.172 9.95233 169.094 9.95233C169.992 9.95233 170.789 10.1008 171.484 10.3976C172.18 10.6945 172.762 11.1164 173.23 11.6633C173.707 12.2101 174.066 12.8664 174.309 13.632C174.551 14.3898 174.672 15.2336 174.672 16.1633V17.5695H164.594V15.3195H171.355V15.0617C171.355 14.593 171.27 14.175 171.098 13.8078C170.934 13.4328 170.684 13.1359 170.348 12.9172C170.012 12.6984 169.582 12.5891 169.059 12.5891C168.613 12.5891 168.23 12.6867 167.91 12.882C167.59 13.0773 167.328 13.3508 167.125 13.7023C166.93 14.0539 166.781 14.468 166.68 14.9445C166.586 15.4133 166.539 15.9289 166.539 16.4914V16.9601C166.539 17.468 166.609 17.9367 166.75 18.3664C166.898 18.7961 167.105 19.1672 167.371 19.4797C167.645 19.7922 167.973 20.0344 168.355 20.2062C168.746 20.3781 169.188 20.4641 169.68 20.4641C170.289 20.4641 170.855 20.3469 171.379 20.1125C171.91 19.8703 172.367 19.507 172.75 19.0226L174.391 20.8039C174.125 21.1867 173.762 21.5539 173.301 21.9055C172.848 22.257 172.301 22.5461 171.66 22.7726C171.02 22.9914 170.289 23.1008 169.469 23.1008ZM179.969 12.9523V22.8664H176.594V10.1867H179.77L179.969 12.9523ZM183.789 10.1047L183.73 13.2336C183.566 13.2101 183.367 13.1906 183.133 13.175C182.906 13.1516 182.699 13.1398 182.512 13.1398C182.035 13.1398 181.621 13.2023 181.27 13.3273C180.926 13.4445 180.637 13.6203 180.402 13.8547C180.176 14.0891 180.004 14.3742 179.887 14.7101C179.777 15.0461 179.715 15.4289 179.699 15.8586L179.02 15.6476C179.02 14.8273 179.102 14.0734 179.266 13.3859C179.43 12.6906 179.668 12.0851 179.98 11.5695C180.301 11.0539 180.691 10.6555 181.152 10.3742C181.613 10.093 182.141 9.95233 182.734 9.95233C182.922 9.95233 183.113 9.96796 183.309 9.99921C183.504 10.0226 183.664 10.0578 183.789 10.1047Z" fill="white"/>
<path d="M154.564 35.7824V32.5187C154.564 32.2687 154.514 32.0519 154.412 31.8683C154.314 31.6808 154.166 31.5363 153.967 31.4348C153.768 31.3332 153.521 31.2824 153.229 31.2824C152.955 31.2824 152.715 31.3293 152.508 31.423C152.305 31.5168 152.145 31.6398 152.027 31.7922C151.914 31.9445 151.857 32.1086 151.857 32.2844H150.773C150.773 32.0578 150.832 31.8332 150.949 31.6105C151.066 31.3879 151.234 31.1867 151.453 31.007C151.676 30.8234 151.941 30.6789 152.25 30.5734C152.562 30.4641 152.91 30.4094 153.293 30.4094C153.754 30.4094 154.16 30.4875 154.512 30.6437C154.867 30.8 155.145 31.0363 155.344 31.3527C155.547 31.6652 155.648 32.0578 155.648 32.5305V35.4836C155.648 35.6945 155.666 35.9191 155.701 36.1574C155.74 36.3957 155.797 36.6008 155.871 36.7726V36.8664H154.74C154.686 36.7414 154.643 36.5754 154.611 36.3683C154.58 36.1574 154.564 35.9621 154.564 35.7824ZM154.752 33.0226L154.764 33.7844H153.668C153.359 33.7844 153.084 33.8098 152.842 33.8605C152.6 33.9074 152.396 33.9797 152.232 34.0773C152.068 34.175 151.943 34.298 151.857 34.4465C151.771 34.591 151.729 34.7609 151.729 34.9562C151.729 35.1555 151.773 35.3371 151.863 35.5012C151.953 35.6652 152.088 35.7961 152.268 35.8937C152.451 35.9875 152.676 36.0344 152.941 36.0344C153.273 36.0344 153.566 35.9641 153.82 35.8234C154.074 35.6828 154.275 35.5109 154.424 35.3078C154.576 35.1047 154.658 34.9074 154.67 34.716L155.133 35.2375C155.105 35.4016 155.031 35.5832 154.91 35.7824C154.789 35.9816 154.627 36.173 154.424 36.3566C154.225 36.5363 153.986 36.6867 153.709 36.8078C153.436 36.925 153.127 36.9836 152.783 36.9836C152.354 36.9836 151.977 36.8996 151.652 36.7316C151.332 36.5637 151.082 36.3391 150.902 36.0578C150.727 35.7726 150.639 35.4543 150.639 35.1027C150.639 34.7629 150.705 34.4641 150.838 34.2062C150.971 33.9445 151.162 33.7277 151.412 33.5558C151.662 33.3801 151.963 33.2473 152.314 33.1574C152.666 33.0676 153.059 33.0226 153.492 33.0226H154.752ZM161.35 35.6359V27.8664H162.439V36.8664H161.443L161.35 35.6359ZM157.084 33.7668V33.6437C157.084 33.1594 157.143 32.7199 157.26 32.3254C157.381 31.9269 157.551 31.5851 157.77 31.3C157.992 31.0148 158.256 30.7961 158.561 30.6437C158.869 30.4875 159.213 30.4094 159.592 30.4094C159.99 30.4094 160.338 30.4797 160.635 30.6203C160.936 30.757 161.189 30.9582 161.396 31.2238C161.607 31.4855 161.773 31.8019 161.895 32.173C162.016 32.5441 162.1 32.9641 162.146 33.4328V33.9719C162.104 34.4367 162.02 34.8547 161.895 35.2258C161.773 35.5969 161.607 35.9133 161.396 36.175C161.189 36.4367 160.936 36.6379 160.635 36.7785C160.334 36.9152 159.982 36.9836 159.58 36.9836C159.209 36.9836 158.869 36.9035 158.561 36.7433C158.256 36.5832 157.992 36.3586 157.77 36.0695C157.551 35.7805 157.381 35.4406 157.26 35.05C157.143 34.6555 157.084 34.2277 157.084 33.7668ZM158.174 33.6437V33.7668C158.174 34.0832 158.205 34.3801 158.268 34.6574C158.334 34.9348 158.436 35.1789 158.572 35.3898C158.709 35.6008 158.883 35.7668 159.094 35.8879C159.305 36.0051 159.557 36.0637 159.85 36.0637C160.209 36.0637 160.504 35.9875 160.734 35.8351C160.969 35.6828 161.156 35.4816 161.297 35.2316C161.438 34.9816 161.547 34.7101 161.625 34.4172V33.0051C161.578 32.7902 161.51 32.5832 161.42 32.384C161.334 32.1808 161.221 32.0012 161.08 31.8449C160.943 31.6848 160.773 31.5578 160.57 31.4641C160.371 31.3703 160.135 31.3234 159.861 31.3234C159.564 31.3234 159.309 31.3859 159.094 31.5109C158.883 31.632 158.709 31.8 158.572 32.0148C158.436 32.2258 158.334 32.4719 158.268 32.7531C158.205 33.0305 158.174 33.3273 158.174 33.6437ZM165.205 31.7863V36.8664H164.115V30.5266H165.146L165.205 31.7863ZM164.982 33.4562L164.479 33.4387C164.482 33.0051 164.539 32.6047 164.648 32.2375C164.758 31.8664 164.92 31.5441 165.135 31.2707C165.35 30.9973 165.617 30.7863 165.938 30.6379C166.258 30.4855 166.629 30.4094 167.051 30.4094C167.348 30.4094 167.621 30.4523 167.871 30.5383C168.121 30.6203 168.338 30.7512 168.521 30.9308C168.705 31.1105 168.848 31.341 168.949 31.6223C169.051 31.9035 169.102 32.2433 169.102 32.6418V36.8664H168.018V32.6945C168.018 32.3625 167.961 32.0969 167.848 31.8976C167.738 31.6984 167.582 31.5539 167.379 31.4641C167.176 31.3703 166.938 31.3234 166.664 31.3234C166.344 31.3234 166.076 31.3801 165.861 31.4933C165.646 31.6066 165.475 31.7629 165.346 31.9621C165.217 32.1613 165.123 32.3898 165.064 32.6476C165.01 32.9016 164.982 33.1711 164.982 33.4562ZM169.09 32.8586L168.363 33.0812C168.367 32.7336 168.424 32.3996 168.533 32.0793C168.646 31.759 168.809 31.4738 169.02 31.2238C169.234 30.9738 169.498 30.7766 169.811 30.632C170.123 30.4836 170.48 30.4094 170.883 30.4094C171.223 30.4094 171.523 30.4543 171.785 30.5441C172.051 30.634 172.273 30.7726 172.453 30.9601C172.637 31.1437 172.775 31.3801 172.869 31.6691C172.963 31.9582 173.01 32.3019 173.01 32.7004V36.8664H171.92V32.6887C171.92 32.3332 171.863 32.0578 171.75 31.8625C171.641 31.6633 171.484 31.5246 171.281 31.4465C171.082 31.3644 170.844 31.3234 170.566 31.3234C170.328 31.3234 170.117 31.3644 169.934 31.4465C169.75 31.5285 169.596 31.6418 169.471 31.7863C169.346 31.9269 169.25 32.0891 169.184 32.2726C169.121 32.4562 169.09 32.6516 169.09 32.8586ZM175.828 30.5266V36.8664H174.738V30.5266H175.828ZM174.656 28.8449C174.656 28.6691 174.709 28.5207 174.814 28.3996C174.924 28.2785 175.084 28.218 175.295 28.218C175.502 28.218 175.66 28.2785 175.77 28.3996C175.883 28.5207 175.939 28.6691 175.939 28.8449C175.939 29.0129 175.883 29.1574 175.77 29.2785C175.66 29.3957 175.502 29.4543 175.295 29.4543C175.084 29.4543 174.924 29.3957 174.814 29.2785C174.709 29.1574 174.656 29.0129 174.656 28.8449ZM178.652 31.8801V36.8664H177.568V30.5266H178.594L178.652 31.8801ZM178.395 33.4562L177.943 33.4387C177.947 33.0051 178.012 32.6047 178.137 32.2375C178.262 31.8664 178.438 31.5441 178.664 31.2707C178.891 30.9973 179.16 30.7863 179.473 30.6379C179.789 30.4855 180.139 30.4094 180.521 30.4094C180.834 30.4094 181.115 30.4523 181.365 30.5383C181.615 30.6203 181.828 30.7531 182.004 30.9367C182.184 31.1203 182.32 31.3586 182.414 31.6516C182.508 31.9406 182.555 32.2941 182.555 32.7121V36.8664H181.465V32.7004C181.465 32.3683 181.416 32.1027 181.318 31.9035C181.221 31.7004 181.078 31.5539 180.891 31.4641C180.703 31.3703 180.473 31.3234 180.199 31.3234C179.93 31.3234 179.684 31.3801 179.461 31.4933C179.242 31.6066 179.053 31.7629 178.893 31.9621C178.736 32.1613 178.613 32.3898 178.523 32.6476C178.438 32.9016 178.395 33.1711 178.395 33.4562Z" fill="#82F3FF"/>
<path d="M15 0.866394L27.9904 8.36639V23.3664L15 30.8664L2.00962 23.3664V8.36639L15 0.866394Z" fill="#065E7C"/>
</g>
<defs>
<clipPath id="clip0_49_2003">
<rect width="197" height="39" fill="white" transform="translate(0 0.866394)"/>
</clipPath>
</defs>
</svg>
