<svg width="197" height="31" viewBox="0 0 197 31" fill="none" xmlns="http://www.w3.org/2000/svg">
<g clip-path="url(#clip0_5_2895)">
<path d="M45.6133 22.3664H42.2148V8.56171C42.2148 7.60077 42.4023 6.79218 42.7773 6.13593C43.1602 5.47186 43.6953 4.97186 44.3828 4.63593C45.0781 4.29218 45.9023 4.1203 46.8555 4.1203C47.168 4.1203 47.4688 4.14374 47.7578 4.19061C48.0469 4.22968 48.3281 4.28046 48.6016 4.34296L48.5664 6.88593C48.418 6.84686 48.2617 6.81952 48.0977 6.80389C47.9336 6.78827 47.7422 6.78046 47.5234 6.78046C47.1172 6.78046 46.7695 6.85077 46.4805 6.99139C46.1992 7.12421 45.9844 7.32343 45.8359 7.58905C45.6875 7.85468 45.6133 8.17889 45.6133 8.56171V22.3664ZM48.1445 9.68671V12.0773H40.3281V9.68671H48.1445ZM49.375 16.1555V15.9094C49.375 14.9797 49.5078 14.1242 49.7734 13.343C50.0391 12.5539 50.4258 11.8703 50.9336 11.2922C51.4414 10.7141 52.0664 10.2648 52.8086 9.94452C53.5508 9.61639 54.4023 9.45233 55.3633 9.45233C56.3242 9.45233 57.1797 9.61639 57.9297 9.94452C58.6797 10.2648 59.3086 10.7141 59.8164 11.2922C60.332 11.8703 60.7227 12.5539 60.9883 13.343C61.2539 14.1242 61.3867 14.9797 61.3867 15.9094V16.1555C61.3867 17.0773 61.2539 17.9328 60.9883 18.7219C60.7227 19.5031 60.332 20.1867 59.8164 20.7726C59.3086 21.3508 58.6836 21.8 57.9414 22.1203C57.1992 22.4406 56.3477 22.6008 55.3867 22.6008C54.4258 22.6008 53.5703 22.4406 52.8203 22.1203C52.0781 21.8 51.4492 21.3508 50.9336 20.7726C50.4258 20.1867 50.0391 19.5031 49.7734 18.7219C49.5078 17.9328 49.375 17.0773 49.375 16.1555ZM52.75 15.9094V16.1555C52.75 16.6867 52.7969 17.1828 52.8906 17.6437C52.9844 18.1047 53.1328 18.5109 53.3359 18.8625C53.5469 19.2062 53.8203 19.4758 54.1562 19.6711C54.4922 19.8664 54.9023 19.9641 55.3867 19.9641C55.8555 19.9641 56.2578 19.8664 56.5938 19.6711C56.9297 19.4758 57.1992 19.2062 57.4023 18.8625C57.6055 18.5109 57.7539 18.1047 57.8477 17.6437C57.9492 17.1828 58 16.6867 58 16.1555V15.9094C58 15.3937 57.9492 14.9094 57.8477 14.4562C57.7539 13.9953 57.6016 13.5891 57.3906 13.2375C57.1875 12.8781 56.918 12.5969 56.582 12.3937C56.2461 12.1906 55.8398 12.0891 55.3633 12.0891C54.8867 12.0891 54.4805 12.1906 54.1445 12.3937C53.8164 12.5969 53.5469 12.8781 53.3359 13.2375C53.1328 13.5891 52.9844 13.9953 52.8906 14.4562C52.7969 14.9094 52.75 15.3937 52.75 15.9094ZM62.9219 16.1555V15.9094C62.9219 14.9797 63.0547 14.1242 63.3203 13.343C63.5859 12.5539 63.9727 11.8703 64.4805 11.2922C64.9883 10.7141 65.6133 10.2648 66.3555 9.94452C67.0977 9.61639 67.9492 9.45233 68.9102 9.45233C69.8711 9.45233 70.7266 9.61639 71.4766 9.94452C72.2266 10.2648 72.8555 10.7141 73.3633 11.2922C73.8789 11.8703 74.2695 12.5539 74.5352 13.343C74.8008 14.1242 74.9336 14.9797 74.9336 15.9094V16.1555C74.9336 17.0773 74.8008 17.9328 74.5352 18.7219C74.2695 19.5031 73.8789 20.1867 73.3633 20.7726C72.8555 21.3508 72.2305 21.8 71.4883 22.1203C70.7461 22.4406 69.8945 22.6008 68.9336 22.6008C67.9727 22.6008 67.1172 22.4406 66.3672 22.1203C65.625 21.8 64.9961 21.3508 64.4805 20.7726C63.9727 20.1867 63.5859 19.5031 63.3203 18.7219C63.0547 17.9328 62.9219 17.0773 62.9219 16.1555ZM66.2969 15.9094V16.1555C66.2969 16.6867 66.3438 17.1828 66.4375 17.6437C66.5312 18.1047 66.6797 18.5109 66.8828 18.8625C67.0938 19.2062 67.3672 19.4758 67.7031 19.6711C68.0391 19.8664 68.4492 19.9641 68.9336 19.9641C69.4023 19.9641 69.8047 19.8664 70.1406 19.6711C70.4766 19.4758 70.7461 19.2062 70.9492 18.8625C71.1523 18.5109 71.3008 18.1047 71.3945 17.6437C71.4961 17.1828 71.5469 16.6867 71.5469 16.1555V15.9094C71.5469 15.3937 71.4961 14.9094 71.3945 14.4562C71.3008 13.9953 71.1484 13.5891 70.9375 13.2375C70.7344 12.8781 70.4648 12.5969 70.1289 12.3937C69.793 12.1906 69.3867 12.0891 68.9102 12.0891C68.4336 12.0891 68.0273 12.1906 67.6914 12.3937C67.3633 12.5969 67.0938 12.8781 66.8828 13.2375C66.6797 13.5891 66.5312 13.9953 66.4375 14.4562C66.3438 14.9094 66.2969 15.3937 66.2969 15.9094ZM84.4961 19.6008V4.36639H87.8945V22.3664H84.8359L84.4961 19.6008ZM76.4805 16.1789V15.9328C76.4805 14.9641 76.5898 14.0851 76.8086 13.2961C77.0273 12.4992 77.3477 11.8156 77.7695 11.2453C78.1914 10.675 78.7109 10.2336 79.3281 9.92108C79.9453 9.60858 80.6484 9.45233 81.4375 9.45233C82.1797 9.45233 82.8281 9.60858 83.3828 9.92108C83.9453 10.2336 84.4219 10.6789 84.8125 11.257C85.2109 11.8273 85.5312 12.5031 85.7734 13.2844C86.0156 14.0578 86.1914 14.9055 86.3008 15.8273V16.3664C86.1914 17.2492 86.0156 18.0695 85.7734 18.8273C85.5312 19.5851 85.2109 20.2492 84.8125 20.8195C84.4219 21.382 83.9453 21.8195 83.3828 22.132C82.8203 22.4445 82.1641 22.6008 81.4141 22.6008C80.625 22.6008 79.9219 22.4406 79.3047 22.1203C78.6953 21.8 78.1797 21.3508 77.7578 20.7726C77.3438 20.1945 77.0273 19.5148 76.8086 18.7336C76.5898 17.9523 76.4805 17.1008 76.4805 16.1789ZM79.8555 15.9328V16.1789C79.8555 16.7023 79.8945 17.1906 79.9727 17.6437C80.0586 18.0969 80.1953 18.4992 80.3828 18.8508C80.5781 19.1945 80.8281 19.4641 81.1328 19.6594C81.4453 19.8469 81.8242 19.9406 82.2695 19.9406C82.8477 19.9406 83.3242 19.8117 83.6992 19.5539C84.0742 19.2883 84.3594 18.925 84.5547 18.4641C84.7578 18.0031 84.875 17.4719 84.9062 16.8703V15.3351C84.8828 14.843 84.8125 14.4016 84.6953 14.0109C84.5859 13.6125 84.4219 13.2726 84.2031 12.9914C83.9922 12.7101 83.7266 12.4914 83.4062 12.3351C83.0938 12.1789 82.7227 12.1008 82.293 12.1008C81.8555 12.1008 81.4805 12.2023 81.168 12.4055C80.8555 12.6008 80.6016 12.8703 80.4062 13.2141C80.2188 13.5578 80.0781 13.9641 79.9844 14.4328C79.8984 14.8937 79.8555 15.3937 79.8555 15.9328ZM102.344 22.6008C101.359 22.6008 100.477 22.4445 99.6953 22.132C98.9141 21.8117 98.25 21.3703 97.7031 20.8078C97.1641 20.2453 96.75 19.593 96.4609 18.8508C96.1719 18.1008 96.0273 17.3039 96.0273 16.4601V15.9914C96.0273 15.0305 96.1641 14.1516 96.4375 13.3547C96.7109 12.5578 97.1016 11.8664 97.6094 11.2805C98.125 10.6945 98.75 10.2453 99.4844 9.9328C100.219 9.61249 101.047 9.45233 101.969 9.45233C102.867 9.45233 103.664 9.60077 104.359 9.89764C105.055 10.1945 105.637 10.6164 106.105 11.1633C106.582 11.7101 106.941 12.3664 107.184 13.132C107.426 13.8898 107.547 14.7336 107.547 15.6633V17.0695H97.4688V14.8195H104.23V14.5617C104.23 14.093 104.145 13.675 103.973 13.3078C103.809 12.9328 103.559 12.6359 103.223 12.4172C102.887 12.1984 102.457 12.0891 101.934 12.0891C101.488 12.0891 101.105 12.1867 100.785 12.382C100.465 12.5773 100.203 12.8508 100 13.2023C99.8047 13.5539 99.6562 13.968 99.5547 14.4445C99.4609 14.9133 99.4141 15.4289 99.4141 15.9914V16.4601C99.4141 16.968 99.4844 17.4367 99.625 17.8664C99.7734 18.2961 99.9805 18.6672 100.246 18.9797C100.52 19.2922 100.848 19.5344 101.23 19.7062C101.621 19.8781 102.062 19.9641 102.555 19.9641C103.164 19.9641 103.73 19.8469 104.254 19.6125C104.785 19.3703 105.242 19.007 105.625 18.5226L107.266 20.3039C107 20.6867 106.637 21.0539 106.176 21.4055C105.723 21.757 105.176 22.0461 104.535 22.2726C103.895 22.4914 103.164 22.6008 102.344 22.6008ZM112.188 9.68671L114.285 13.5422L116.441 9.68671H120.039L116.453 15.8859L120.203 22.3664H116.594L114.309 18.2883L112.023 22.3664H108.414L112.164 15.8859L108.578 9.68671H112.188ZM125.055 12.1242V27.2414H121.68V9.68671H124.809L125.055 12.1242ZM133.082 15.8859V16.132C133.082 17.0539 132.973 17.9094 132.754 18.6984C132.543 19.4875 132.23 20.175 131.816 20.7609C131.402 21.3391 130.887 21.7922 130.27 22.1203C129.66 22.4406 128.957 22.6008 128.16 22.6008C127.387 22.6008 126.715 22.4445 126.145 22.132C125.574 21.8195 125.094 21.382 124.703 20.8195C124.32 20.2492 124.012 19.5891 123.777 18.8391C123.543 18.0891 123.363 17.2844 123.238 16.425V15.7805C123.363 14.8586 123.543 14.0148 123.777 13.2492C124.012 12.4758 124.32 11.8078 124.703 11.2453C125.094 10.675 125.57 10.2336 126.133 9.92108C126.703 9.60858 127.371 9.45233 128.137 9.45233C128.941 9.45233 129.648 9.60468 130.258 9.90936C130.875 10.2141 131.391 10.6516 131.805 11.2219C132.227 11.7922 132.543 12.4719 132.754 13.2609C132.973 14.05 133.082 14.925 133.082 15.8859ZM129.695 16.132V15.8859C129.695 15.3469 129.648 14.8508 129.555 14.3976C129.469 13.9367 129.328 13.5344 129.133 13.1906C128.945 12.8469 128.695 12.5812 128.383 12.3937C128.078 12.1984 127.707 12.1008 127.27 12.1008C126.809 12.1008 126.414 12.175 126.086 12.3234C125.766 12.4719 125.504 12.6867 125.301 12.968C125.098 13.2492 124.945 13.5851 124.844 13.9758C124.742 14.3664 124.68 14.8078 124.656 15.3V16.9289C124.695 17.507 124.805 18.0266 124.984 18.4875C125.164 18.9406 125.441 19.3 125.816 19.5656C126.191 19.8312 126.684 19.9641 127.293 19.9641C127.738 19.9641 128.113 19.8664 128.418 19.6711C128.723 19.468 128.969 19.1906 129.156 18.8391C129.352 18.4875 129.488 18.0812 129.566 17.6203C129.652 17.1594 129.695 16.6633 129.695 16.132ZM138.742 4.36639V22.3664H135.355V4.36639H138.742ZM140.992 16.1555V15.9094C140.992 14.9797 141.125 14.1242 141.391 13.343C141.656 12.5539 142.043 11.8703 142.551 11.2922C143.059 10.7141 143.684 10.2648 144.426 9.94452C145.168 9.61639 146.02 9.45233 146.98 9.45233C147.941 9.45233 148.797 9.61639 149.547 9.94452C150.297 10.2648 150.926 10.7141 151.434 11.2922C151.949 11.8703 152.34 12.5539 152.605 13.343C152.871 14.1242 153.004 14.9797 153.004 15.9094V16.1555C153.004 17.0773 152.871 17.9328 152.605 18.7219C152.34 19.5031 151.949 20.1867 151.434 20.7726C150.926 21.3508 150.301 21.8 149.559 22.1203C148.816 22.4406 147.965 22.6008 147.004 22.6008C146.043 22.6008 145.188 22.4406 144.438 22.1203C143.695 21.8 143.066 21.3508 142.551 20.7726C142.043 20.1867 141.656 19.5031 141.391 18.7219C141.125 17.9328 140.992 17.0773 140.992 16.1555ZM144.367 15.9094V16.1555C144.367 16.6867 144.414 17.1828 144.508 17.6437C144.602 18.1047 144.75 18.5109 144.953 18.8625C145.164 19.2062 145.438 19.4758 145.773 19.6711C146.109 19.8664 146.52 19.9641 147.004 19.9641C147.473 19.9641 147.875 19.8664 148.211 19.6711C148.547 19.4758 148.816 19.2062 149.02 18.8625C149.223 18.5109 149.371 18.1047 149.465 17.6437C149.566 17.1828 149.617 16.6867 149.617 16.1555V15.9094C149.617 15.3937 149.566 14.9094 149.465 14.4562C149.371 13.9953 149.219 13.5891 149.008 13.2375C148.805 12.8781 148.535 12.5969 148.199 12.3937C147.863 12.1906 147.457 12.0891 146.98 12.0891C146.504 12.0891 146.098 12.1906 145.762 12.3937C145.434 12.5969 145.164 12.8781 144.953 13.2375C144.75 13.5891 144.602 13.9953 144.508 14.4562C144.414 14.9094 144.367 15.3937 144.367 15.9094ZM158.453 12.4523V22.3664H155.078V9.68671H158.254L158.453 12.4523ZM162.273 9.60468L162.215 12.7336C162.051 12.7101 161.852 12.6906 161.617 12.675C161.391 12.6516 161.184 12.6398 160.996 12.6398C160.52 12.6398 160.105 12.7023 159.754 12.8273C159.41 12.9445 159.121 13.1203 158.887 13.3547C158.66 13.5891 158.488 13.8742 158.371 14.2101C158.262 14.5461 158.199 14.9289 158.184 15.3586L157.504 15.1476C157.504 14.3273 157.586 13.5734 157.75 12.8859C157.914 12.1906 158.152 11.5851 158.465 11.0695C158.785 10.5539 159.176 10.1555 159.637 9.87421C160.098 9.59296 160.625 9.45233 161.219 9.45233C161.406 9.45233 161.598 9.46796 161.793 9.49921C161.988 9.52264 162.148 9.5578 162.273 9.60468ZM169.469 22.6008C168.484 22.6008 167.602 22.4445 166.82 22.132C166.039 21.8117 165.375 21.3703 164.828 20.8078C164.289 20.2453 163.875 19.593 163.586 18.8508C163.297 18.1008 163.152 17.3039 163.152 16.4601V15.9914C163.152 15.0305 163.289 14.1516 163.562 13.3547C163.836 12.5578 164.227 11.8664 164.734 11.2805C165.25 10.6945 165.875 10.2453 166.609 9.9328C167.344 9.61249 168.172 9.45233 169.094 9.45233C169.992 9.45233 170.789 9.60077 171.484 9.89764C172.18 10.1945 172.762 10.6164 173.23 11.1633C173.707 11.7101 174.066 12.3664 174.309 13.132C174.551 13.8898 174.672 14.7336 174.672 15.6633V17.0695H164.594V14.8195H171.355V14.5617C171.355 14.093 171.27 13.675 171.098 13.3078C170.934 12.9328 170.684 12.6359 170.348 12.4172C170.012 12.1984 169.582 12.0891 169.059 12.0891C168.613 12.0891 168.23 12.1867 167.91 12.382C167.59 12.5773 167.328 12.8508 167.125 13.2023C166.93 13.5539 166.781 13.968 166.68 14.4445C166.586 14.9133 166.539 15.4289 166.539 15.9914V16.4601C166.539 16.968 166.609 17.4367 166.75 17.8664C166.898 18.2961 167.105 18.6672 167.371 18.9797C167.645 19.2922 167.973 19.5344 168.355 19.7062C168.746 19.8781 169.188 19.9641 169.68 19.9641C170.289 19.9641 170.855 19.8469 171.379 19.6125C171.91 19.3703 172.367 19.007 172.75 18.5226L174.391 20.3039C174.125 20.6867 173.762 21.0539 173.301 21.4055C172.848 21.757 172.301 22.0461 171.66 22.2726C171.02 22.4914 170.289 22.6008 169.469 22.6008ZM179.969 12.4523V22.3664H176.594V9.68671H179.77L179.969 12.4523ZM183.789 9.60468L183.73 12.7336C183.566 12.7101 183.367 12.6906 183.133 12.675C182.906 12.6516 182.699 12.6398 182.512 12.6398C182.035 12.6398 181.621 12.7023 181.27 12.8273C180.926 12.9445 180.637 13.1203 180.402 13.3547C180.176 13.5891 180.004 13.8742 179.887 14.2101C179.777 14.5461 179.715 14.9289 179.699 15.3586L179.02 15.1476C179.02 14.3273 179.102 13.5734 179.266 12.8859C179.43 12.1906 179.668 11.5851 179.98 11.0695C180.301 10.5539 180.691 10.1555 181.152 9.87421C181.613 9.59296 182.141 9.45233 182.734 9.45233C182.922 9.45233 183.113 9.46796 183.309 9.49921C183.504 9.52264 183.664 9.5578 183.789 9.60468Z" fill="#4D585E"/>
<path d="M15 0.366394L27.9904 7.86639V22.8664L15 30.3664L2.00962 22.8664V7.86639L15 0.366394Z" fill="#4D585E"/>
</g>
<defs>
<clipPath id="clip0_5_2895">
<rect width="197" height="30" fill="white" transform="translate(0 0.366394)"/>
</clipPath>
</defs>
</svg>
